<?xml version="1.0" standalone="no"?>
<!DOCTYPE svg PUBLIC "-//W3C//DTD SVG 20010904//EN"
 "http://www.w3.org/TR/2001/REC-SVG-20010904/DTD/svg10.dtd">
<svg version="1.0" xmlns="http://www.w3.org/2000/svg"
 width="700.000000pt" height="700.000000pt" viewBox="0 0 700.000000 700.000000"
 preserveAspectRatio="xMidYMid meet">
<metadata>
Created by potrace 1.14, written by Peter Selinger 2001-2017
</metadata>
<g transform="translate(0.000000,700.000000) scale(0.100000,-0.100000)"
fill="#000000" stroke="none">
<path d="M1915 6122 c-271 -25 -498 -212 -576 -473 -21 -71 -22 -92 -25 -529
-2 -250 -3 -471 -3 -490 l-1 -36 -227 0 c-126 0 -244 -3 -264 -7 -45 -9 -114
-67 -141 -120 -57 -112 5 -254 129 -296 43 -14 146 -16 958 -15 904 0 910 0
950 21 84 44 126 111 126 199 0 104 -75 193 -176 211 -28 4 -245 8 -483 8
l-433 -1 3 471 3 470 23 40 c28 48 83 89 137 103 25 7 207 10 484 9 l445 -2 1
-460 c1 -415 3 -464 18 -500 24 -54 53 -84 108 -109 l47 -22 923 0 924 1 45
23 c48 26 72 50 98 97 15 26 17 85 20 501 l3 472 442 0 c303 1 456 -2 487 -10
60 -15 115 -61 142 -117 l23 -46 0 -2000 c1 -1656 -1 -2008 -12 -2048 -18 -61
-86 -130 -144 -145 -60 -15 -4017 -14 -4067 2 -52 15 -127 91 -141 141 -7 26
-11 195 -11 490 l0 451 463 0 c448 1 463 1 502 21 83 43 125 110 126 197 1 88
-47 162 -130 199 -45 20 -59 21 -946 22 -741 1 -909 -1 -950 -13 -160 -45
-210 -252 -88 -367 57 -54 78 -57 341 -58 l242 -1 1 -31 c0 -16 2 -235 3 -485
2 -250 6 -468 10 -485 60 -262 252 -456 511 -517 59 -13 4043 -19 4159 -5 285
33 533 285 563 572 3 33 6 962 6 2065 0 1528 -3 2020 -13 2070 -49 265 -279
489 -540 526 -50 7 -4023 13 -4095 6z m2675 -442 c4 -6 5 -583 1 -638 -1 -10
-135 -12 -655 -12 l-655 1 0 321 c1 178 2 325 5 329 5 9 1298 8 1304 -1z"/>
<path d="M4740 4147 c-23 -7 -65 -41 -120 -97 -166 -169 -405 -423 -428 -454
-57 -81 -40 -209 38 -278 94 -84 207 -77 309 18 l56 52 -1 -397 c-1 -440 1
-452 62 -515 90 -93 238 -90 319 6 55 65 55 66 55 498 0 220 2 400 5 400 3 0
23 -18 44 -39 57 -58 96 -75 171 -76 81 0 138 29 180 93 68 103 50 196 -62
313 -33 35 -131 138 -217 228 -86 90 -162 172 -169 182 -40 57 -161 90 -242
66z"/>
<path d="M369 3706 c-148 -52 -198 -242 -92 -351 73 -75 -7 -70 1013 -72 641
-2 927 0 956 8 93 24 164 123 158 218 -5 94 -72 178 -158 199 -64 16 -1830 14
-1877 -2z"/>
<path d="M4300 2170 c-117 -40 -172 -169 -124 -289 20 -50 79 -103 133 -119
49 -15 950 -17 1000 -2 164 47 213 256 86 368 -24 21 -61 43 -82 49 -25 8
-195 12 -498 12 -426 0 -464 -1 -515 -19z"/>
</g>
</svg>
